<?xml version="1.0" standalone="no"?>
<!DOCTYPE svg PUBLIC "-//W3C//DTD SVG 1.1//EN" "http://www.w3.org/Graphics/SVG/1.1/DTD/svg11.dtd" >
<svg xmlns="http://www.w3.org/2000/svg">
<metadata></metadata>
<defs>
<font id="gotham_xnarrowbold" horiz-adv-x="978" >
<font-face units-per-em="2048" ascent="1638" descent="-410" />
<missing-glyph horiz-adv-x="376" />
<glyph unicode="&#xfb01;" horiz-adv-x="1048" d="M39 877v217h90v75q0 152 74 226q80 76 225 75q45 0 76 -4t59 -12v-221q-16 4 -31.5 7t-35.5 3q-47 0 -75 -26.5t-28 -79.5v-43h170v-217h-168v-877h-266v877h-90zM680 1208v254h274v-254h-274zM684 0v1098h266v-1098h-266z" />
<glyph unicode="&#xfb02;" horiz-adv-x="1048" d="M39 877v217h90v75q0 152 74 226q80 76 225 75q45 0 76 -4t59 -12v-221q-16 4 -31.5 7t-35.5 3q-47 0 -75 -26.5t-28 -79.5v-43h170v-217h-168v-877h-266v877h-90zM684 0v1462h266v-1462h-266z" />
<glyph unicode="&#xfb03;" horiz-adv-x="1624" d="M39 877v217h90v75q0 152 74 226q80 76 225 75q45 0 76 -4t59 -12v-221q-16 4 -31.5 7t-35.5 3q-47 0 -75 -26.5t-28 -79.5v-43h166v-217h-164v-877h-266v877h-90zM623 877v217h86v75q0 152 75 226q76 76 224 75q47 0 77.5 -4t57.5 -12v-221q-16 4 -30.5 7t-37.5 3 q-47 0 -74.5 -26.5t-27.5 -79.5v-43h170v-217h-168v-877h-266v877h-86zM1255 1208v254h275v-254h-275zM1260 0v1098h266v-1098h-266z" />
<glyph unicode="&#xfb04;" horiz-adv-x="1624" d="M39 877v217h90v75q0 152 74 226q80 76 225 75q45 0 76 -4t59 -12v-221q-16 4 -31.5 7t-35.5 3q-47 0 -75 -26.5t-28 -79.5v-43h166v-217h-164v-877h-266v877h-90zM623 877v217h86v75q0 152 75 226q76 76 224 75q47 0 77.5 -4t57.5 -12v-221q-16 4 -30.5 7t-37.5 3 q-47 0 -74.5 -26.5t-27.5 -79.5v-43h170v-217h-168v-877h-266v877h-86zM1260 0v1462h266v-1462h-266z" />
<glyph horiz-adv-x="2048" />
<glyph horiz-adv-x="2048" />
<glyph unicode="&#xd;" horiz-adv-x="376" />
<glyph unicode=" "  horiz-adv-x="376" />
<glyph unicode="&#x09;" horiz-adv-x="376" />
<glyph unicode="&#xa0;" horiz-adv-x="376" />
<glyph unicode="!" horiz-adv-x="532" d="M106 1393v41h320v-41l-90 -932h-141zM115 0v301h301v-301h-301z" />
<glyph unicode="&#x22;" horiz-adv-x="839" d="M100 780l15 654h282v-17l-180 -637h-117zM494 780l12 654h282v-17l-180 -637h-114z" />
<glyph unicode="#" horiz-adv-x="1017" d="M43 319v238h150l38 328h-139v237h168l37 312h201l-37 -312h192l35 312h201l-37 -312h121v-237h-150l-39 -328h140v-238h-168l-37 -319h-199l37 319h-192l-37 -319h-201l37 319h-121zM389 553h199l39 336h-199z" />
<glyph unicode="$" horiz-adv-x="942" d="M25 190l161 201q49 -59 120 -106t157 -47q72 0 110.5 40.5t38.5 100.5v2q0 45 -34.5 92t-143.5 113q-98 59 -164.5 112.5t-107.5 107.5t-58.5 112.5t-17.5 130.5v2q0 147 83 247.5t218 131.5v143h180v-135q86 -10 170 -50t152 -114l-164 -197q-43 47 -97.5 83t-127.5 36 q-72 0 -109 -38t-37 -89q0 -29 9.5 -53.5t34 -50t66.5 -57t109 -74.5q82 -53 140.5 -103.5t95.5 -104t54.5 -110.5t17.5 -125v-2q0 -154 -87 -255t-227 -132v-215h-180v209q-94 10 -189.5 56t-172.5 138z" />
<glyph unicode="%" horiz-adv-x="1386" d="M66 1055v30q0 80 19 147.5t56 115t87.5 74t111.5 26.5t111.5 -26.5t86 -74t55 -115t19.5 -147.5v-28q0 -162 -74.5 -262.5t-199.5 -100.5q-61 0 -111.5 25.5t-86.5 74t-55 115t-19 146.5zM199 0l434 756l375 678h182l-432 -756l-377 -678h-182zM252 1063q0 -197 88 -197 t88 197v14q0 98 -24.5 147.5t-65.5 49.5q-86 0 -86 -195v-16zM774 348v29q0 164 75 263t200 99q61 0 111 -25.5t86 -73.5t55.5 -114.5t19.5 -146.5v-31q0 -162 -74.5 -262t-199.5 -100q-61 0 -111.5 26.5t-86.5 73.5t-55.5 114.5t-19.5 147.5zM958 356q0 -98 25 -147t66 -49 q86 0 86 194v17q0 197 -88 196q-88 0 -89 -196v-15z" />
<glyph unicode="&#x26;" horiz-adv-x="1087" d="M43 377v6q0 135 62.5 235.5t179.5 178.5q-59 90 -87 162.5t-28 148.5v10q0 68 24.5 129.5t69.5 107.5t109.5 73.5t144.5 27.5q76 0 137.5 -24.5t104.5 -68.5t66.5 -104.5t23.5 -132.5v-10q0 -131 -64.5 -221t-175.5 -160l152 -225q18 41 33.5 88t33.5 117l211 -62 q-25 -104 -56.5 -189t-72.5 -157l154 -205l-199 -129l-106 142q-66 -63 -141.5 -99t-180.5 -36q-82 0 -153.5 27.5t-126 79.5t-85 126t-30.5 164zM311 391q0 -80 44 -130t116 -50q45 0 84 19.5t74 54.5l-215 327q-53 -45 -78 -103t-25 -112v-6zM412 1110q0 -47 17 -96.5 t58 -112.5q127 84 127 209v2q0 55 -27.5 91t-72.5 36q-47 0 -74.5 -36t-27.5 -89v-4z" />
<glyph unicode="'" horiz-adv-x="448" d="M100 780l15 654h284v-17l-182 -637h-117z" />
<glyph unicode="(" horiz-adv-x="722" d="M98 590q0 154 29 289t88 245.5t151.5 195.5t219.5 138l90 -170q-90 -49 -150.5 -121.5t-97.5 -162t-53.5 -193.5t-16.5 -221t16.5 -221.5t53.5 -193.5t97.5 -161.5t150.5 -122.5l-90 -170q-127 53 -219.5 138.5t-151.5 196t-88 245.5t-29 289z" />
<glyph unicode=")" horiz-adv-x="722" d="M47 -109q88 49 149.5 122t98.5 162t53.5 193.5t16.5 221.5t-16.5 221t-53.5 193.5t-98.5 162t-149.5 121.5l90 170q127 -53 219.5 -138t151.5 -195.5t88 -246t29 -288.5q0 -154 -29 -289t-88 -245.5t-151.5 -195.5t-219.5 -139z" />
<glyph unicode="*" horiz-adv-x="710" d="M55 1030l203 82l-203 84l84 145l168 -141l-35 236h166l-35 -236l168 141l84 -145l-202 -84l202 -82l-84 -145l-168 141l35 -235h-166l35 235l-168 -141z" />
<glyph unicode="+" horiz-adv-x="974" d="M80 596v250h282v295h250v-295h283v-250h-283v-295h-250v295h-282z" />
<glyph unicode="," horiz-adv-x="497" d="M43 -221q111 20 150.5 82.5t31.5 138.5h-127v301h301v-250q0 -180 -85 -274t-248 -109z" />
<glyph unicode="-" horiz-adv-x="743" d="M88 502v266h567v-266h-567z" />
<glyph unicode="." horiz-adv-x="497" d="M98 0v301h301v-301h-301z" />
<glyph unicode="/" horiz-adv-x="798" d="M-33 -223l619 1818h225l-618 -1818h-226z" />
<glyph unicode="0" horiz-adv-x="1085" d="M72 690v51q0 352 126 533.5t347 181.5q217 0 343 -181t126 -532v-51q0 -352 -126 -533.5t-345 -181.5q-223 0 -347 181.5t-124 531.5zM350 700q0 -131 14.5 -220t41 -144t62.5 -80t77 -25t75.5 24t60.5 79t40 144t14 220v35q0 131 -15 220t-41 144.5t-61.5 80t-74.5 24.5 q-41 0 -77 -23.5t-61.5 -79t-40 -144.5t-14.5 -220v-35z" />
<glyph unicode="1" horiz-adv-x="647" d="M37 1354l291 90h192v-1444h-274v1153l-185 -53z" />
<glyph unicode="2" horiz-adv-x="937" d="M61 1237q82 106 190.5 162.5t223.5 56.5q84 0 158 -25.5t128 -75.5t85 -123t31 -167v-4q0 -59 -11.5 -112.5t-38 -109t-69.5 -119t-107 -145.5l-245 -317h458v-258h-786v227l360 484q45 61 77 108t50.5 85t26.5 71t8 65q0 72 -45 113t-106 41q-66 0 -117 -39t-111 -108z " />
<glyph unicode="3" horiz-adv-x="917" d="M27 121l133 213q35 -31 90 -67t135 -36q84 0 139.5 53.5t55.5 145.5v4q0 98 -75 153.5t-222 55.5h-33l-19 178l283 357h-424v256h746v-232l-306 -362q63 -16 122 -48t103 -81t70.5 -116t26.5 -153v-8q0 -104 -34 -188t-94 -144.5t-143.5 -92.5t-179.5 -32q-115 0 -209 39 t-165 105z" />
<glyph unicode="4" horiz-adv-x="1042" d="M41 483l547 957h256v-924h149v-235h-149v-281h-258v281h-525zM315 516h271v483z" />
<glyph unicode="5" horiz-adv-x="931" d="M41 121l137 215q53 -47 105.5 -73.5t119.5 -26.5q88 0 141.5 60t53.5 163v2q0 100 -60.5 155.5t-146.5 55.5q-41 0 -79 -10.5t-68 -26.5l-148 96l41 703h676v-256h-457l-16 -273q29 6 58.5 11.5t70.5 5.5q76 0 148.5 -25t129 -79t90 -139t33.5 -206v-6q0 -115 -34.5 -206 t-96 -154.5t-145.5 -96.5t-182 -33q-100 0 -196.5 36t-174.5 108z" />
<glyph unicode="6" horiz-adv-x="1013" d="M72 655v19q0 203 35.5 351.5t102 243.5t161 141t211.5 46q84 0 159.5 -26.5t147.5 -77.5l-119 -228q-29 25 -80 51.5t-110 26.5q-102 0 -163 -89t-69 -263q49 35 104.5 55.5t127.5 20.5q70 0 136 -27t117.5 -81t83 -139t31.5 -202v-6q0 -111 -33.5 -201t-92 -155.5 t-137.5 -101.5t-169 -36q-88 0 -158.5 30t-124.5 83q-37 39 -66.5 88t-51 116.5t-32.5 156t-11 204.5zM346 457q0 -111 45 -172.5t123 -61.5t123 61.5t45 172.5v2q0 111 -45 172t-123 61t-123 -61.5t-45 -171.5v-2z" />
<glyph unicode="7" horiz-adv-x="919" d="M70 1169v265h784v-203l-442 -1231h-289l448 1169h-501z" />
<glyph unicode="8" horiz-adv-x="999" d="M59 389v10q0 70 15.5 124.5t42 95t62.5 71.5t77 53q-72 47 -118 126t-46 190v10q0 84 30 155.5t84 123t129 80t165 28.5t164.5 -28.5t129 -80t84 -123t29.5 -155.5v-10q0 -111 -46 -189.5t-118 -126.5q41 -23 77 -53.5t62.5 -71t42 -95t15.5 -124.5v-10q0 -96 -33 -172 t-92 -129t-140 -82t-175 -29q-96 0 -176 29t-139.5 82t-92.5 129t-33 172zM326 414q0 -102 51 -156.5t123 -54.5t123 54t51 157v4q0 98 -50.5 152.5t-123.5 54.5q-74 0 -124 -54.5t-50 -152.5v-4zM348 1047q0 -92 44.5 -143.5t107.5 -51.5t107 51t44 144q0 92 -46 139 t-105 47t-105.5 -47t-46.5 -139z" />
<glyph unicode="9" horiz-adv-x="1009" d="M63 948v6q0 113 34 205t92.5 157.5t137.5 102.5t169 37q88 0 158.5 -29.5t123.5 -83.5q37 -39 66.5 -88t51.5 -116.5t33 -155.5t11 -205v-18q0 -203 -36 -351.5t-102.5 -243.5t-160.5 -141.5t-211 -46.5q-84 0 -164 28t-166 93l119 228q45 -37 99.5 -66t113.5 -29 q102 0 162.5 87.5t67.5 246.5q-49 -35 -104.5 -54t-125.5 -19t-136.5 26.5t-117.5 82.5t-83 142t-32 205zM330 967q0 -115 45 -178.5t123 -63.5t123 63.5t45 178.5v2q0 115 -45.5 178t-122.5 63q-78 0 -123 -63.5t-45 -177.5v-2z" />
<glyph unicode=":" horiz-adv-x="518" d="M109 0v301h301v-301h-301zM109 797v301h301v-301h-301z" />
<glyph unicode=";" horiz-adv-x="518" d="M53 -221q111 20 151 82.5t32 138.5h-127v301h301v-250q0 -180 -85 -274t-249 -109zM109 797v301h301v-301h-301z" />
<glyph unicode="&#x3c;" horiz-adv-x="974" d="M88 598v246l776 407v-288l-504 -240l504 -240v-293z" />
<glyph unicode="=" horiz-adv-x="974" d="M86 369v260h803v-260h-803zM86 813v260h803v-260h-803z" />
<glyph unicode="&#x3e;" horiz-adv-x="974" d="M111 190v289l503 240l-503 239v293l776 -407v-246z" />
<glyph unicode="?" horiz-adv-x="825" d="M6 1290q78 72 164 114t195 42q94 0 170.5 -28.5t131 -81t83 -124t28.5 -159.5q0 -84 -23.5 -148.5t-64.5 -112t-95 -79t-116 -49.5l-24 -203h-181l-30 350l8 10q127 20 191.5 76.5t64.5 142.5v4q0 70 -45 111t-115 41q-35 0 -65.5 -11t-56 -26.5t-45 -33t-31.5 -31.5z M215 0v301h301v-301h-301z" />
<glyph unicode="@" horiz-adv-x="1562" d="M76 485q0 190 55 365.5t155.5 310.5t241 215t310.5 80q141 0 260 -56.5t205 -151.5t134 -221t48 -263q0 -129 -25.5 -243.5t-73 -199.5t-115 -134.5t-153.5 -49.5q-109 0 -165 45t-79 105q-45 -63 -103 -104.5t-136 -41.5q-51 0 -96 19.5t-79 58.5t-53.5 94.5 t-19.5 128.5q0 119 29.5 227.5t79 191.5t115 131t137.5 48q80 0 126 -41t70 -94l21 113l215 -35l-93 -532q-12 -53 -12 -109q0 -106 96 -106q45 0 86 40.5t72 113.5t49.5 170t18.5 210q0 119 -41 228.5t-115 192.5t-178.5 132t-231.5 49q-147 0 -270 -74.5t-211 -198.5 t-137 -285t-49 -335q0 -160 44 -288t124 -219t191.5 -140t246.5 -49q104 0 194.5 24.5t178.5 77.5l43 -69q-98 -59 -197.5 -87t-226.5 -28q-147 0 -273.5 54.5t-218.5 155.5t-144 246.5t-50 327.5zM610 463q0 -74 30 -105.5t73 -31.5q47 0 84 39q25 25 43 65.5t31.5 88.5 t20.5 96.5t7 84.5q0 74 -29.5 106t-72.5 32q-47 0 -84 -39q-25 -25 -43.5 -66t-31.5 -89t-20.5 -96t-7.5 -85z" />
<glyph unicode="A" horiz-adv-x="1112" d="M20 0l398 1440h276l400 -1440h-281l-78 299h-368l-76 -299h-271zM432 543h238l-117 471z" />
<glyph unicode="B" horiz-adv-x="1054" d="M111 0v1434h383q117 0 214 -30t158 -93q47 -47 72 -106.5t25 -137.5v-8q0 -66 -17.5 -117t-45.5 -89t-63.5 -65.5t-74.5 -46.5q51 -23 95 -50t77 -67t51.5 -92.5t18.5 -121.5v-15q0 -96 -36 -169.5t-102.5 -124t-158 -76t-201.5 -25.5h-395zM381 248h143q92 0 149.5 46 t57.5 132v2q0 82 -56.5 130t-154.5 48h-139v-358zM381 840h111q92 0 146 45t54 129v2q0 86 -51 128t-141 42h-119v-346z" />
<glyph unicode="C" horiz-adv-x="993" d="M72 700v33q0 174 41 308.5t112.5 225.5t170 137t214.5 46q113 0 195 -38t147 -101l-155 -219q-41 41 -87 68.5t-102 27.5q-53 0 -99 -30t-81 -88t-55.5 -145t-20.5 -202v-10q0 -123 21.5 -211t56.5 -145.5t80 -84t94 -26.5q61 0 108.5 28.5t96.5 77.5l145 -213 q-80 -78 -168 -116.5t-192 -38.5q-240 0 -381 183t-141 533z" />
<glyph unicode="D" horiz-adv-x="1132" d="M111 0v1434h354q141 0 251.5 -47.5t187.5 -137.5t118 -220t41 -296v-33q0 -164 -41 -294t-118 -220t-187.5 -138t-251.5 -48h-354zM385 250h76q143 0 231 108.5t88 348.5v20q0 240 -88 348.5t-231 108.5h-76v-934z" />
<glyph unicode="E" horiz-adv-x="933" d="M111 0v1434h745v-254h-473v-332h418v-254h-418v-340h481v-254h-753z" />
<glyph unicode="F" horiz-adv-x="897" d="M111 0v1434h733v-256h-459v-340h401v-256h-401v-582h-274z" />
<glyph unicode="G" horiz-adv-x="1116" d="M72 700v33q0 166 43 299t119.5 225.5t183 142.5t233.5 50q203 0 365 -135l-152 -225q-29 35 -80 67.5t-131 32.5q-133 0 -217 -120t-84 -337v-28q0 -125 24.5 -214.5t66.5 -145.5t96.5 -82.5t115.5 -26.5q35 0 67 8t50 20v311h-194v242h450v-711q-84 -53 -178 -87.5 t-213 -34.5t-222.5 45t-179 134t-119.5 224t-44 313z" />
<glyph unicode="H" horiz-adv-x="1120" d="M111 0v1434h274v-584h350v584h275v-1434h-275v592h-350v-592h-274z" />
<glyph unicode="I" horiz-adv-x="509" d="M119 0v1434h272v-1434h-272z" />
<glyph unicode="J" horiz-adv-x="806" d="M8 129l158 197q25 -33 56.5 -56.5t78.5 -23.5q59 0 96 42t37 138v1008h273v-1022q0 -217 -111 -324q-105 -104 -281 -104q-94 0 -175 39.5t-132 105.5z" />
<glyph unicode="K" horiz-adv-x="1073" d="M111 0v1434h274v-611l342 611h320l-369 -607l381 -827h-316l-262 567l-96 -161v-406h-274z" />
<glyph unicode="L" horiz-adv-x="856" d="M111 0v1434h274v-1178h430v-256h-704z" />
<glyph unicode="M" horiz-adv-x="1284" d="M111 0v1434h280l252 -555l250 555h283v-1434h-269v893l-264 -569h-4l-264 565v-889h-264z" />
<glyph unicode="N" horiz-adv-x="1150" d="M111 0v1434h254l407 -783v783h268v-1434h-237l-424 815v-815h-268z" />
<glyph unicode="O" horiz-adv-x="1185" d="M72 692v47q0 170 37.5 303.5t107.5 225.5t165 140t212 48t212 -48t163.5 -140t106.5 -225.5t38 -301.5v-47q0 -170 -38 -303t-107.5 -225t-164.5 -140.5t-212 -48.5t-212 48.5t-164 140.5t-106.5 224t-37.5 302zM352 705q0 -244 70 -360t172 -116t171 115t69 358v27 q0 242 -70 358.5t-172 116.5t-171 -115.5t-69 -357.5v-26z" />
<glyph unicode="P" horiz-adv-x="1003" d="M111 0v1434h356q113 0 204 -32t155.5 -93.5t100.5 -152.5t36 -210v-4q0 -123 -37 -215t-102.5 -153.5t-154.5 -94.5t-194 -37h-90v-442h-274zM385 692h72q115 0 172 66.5t57 177.5q0 119 -55.5 182.5t-171.5 63.5h-74v-490z" />
<glyph unicode="Q" horiz-adv-x="1196" d="M72 692v47q0 170 37.5 303.5t107.5 225.5t165 140t212 48t212 -48t163.5 -140t106.5 -225.5t38 -301.5v-47q0 -133 -25.5 -243.5t-72.5 -198.5l139 -123l-154 -166l-120 117q-125 -102 -285 -103q-117 0 -214 48.5t-166 140.5t-106.5 224t-37.5 302zM352 698 q0 -129 18.5 -219t52.5 -145t81 -81t102 -26q51 0 94 25l-159 149l147 166l123 -121q10 49 16.5 110.5t6.5 139.5v39q0 121 -18.5 210t-51.5 146.5t-77 85t-95 27.5q-102 0 -171 -112.5t-69 -354.5v-39z" />
<glyph unicode="R" horiz-adv-x="1060" d="M111 0v1434h405q113 0 204 -32t154 -95q57 -57 88 -141.5t31 -194.5v-13q0 -154 -61.5 -252t-157.5 -151l252 -555h-305l-215 485h-121v-485h-274zM385 729h109q113 0 169 61.5t56 165.5q0 115 -59.5 170.5t-172.5 55.5h-102v-453z" />
<glyph unicode="S" horiz-adv-x="917" d="M0 176l164 213q23 -23 51.5 -48.5t63 -48t74.5 -37.5t85 -15q76 0 118 43t42 104q0 25 -7 46.5t-28.5 46t-59.5 52t-100 64.5q-82 49 -145 95t-107.5 98.5t-68 113t-23.5 135.5v4q0 90 32 165t88.5 128.5t136 83t176.5 29.5q92 0 196.5 -37t190.5 -129l-168 -211 q-39 41 -97.5 82t-134.5 41q-61 0 -102 -34t-41 -91q0 -25 8 -48.5t32.5 -51t71 -61.5t119.5 -79q76 -47 133.5 -92t96.5 -96t58 -108.5t19 -129.5v-4q0 -92 -33.5 -167.5t-92 -131t-137.5 -85t-169 -29.5q-109 0 -222.5 42t-219.5 148z" />
<glyph unicode="T" horiz-adv-x="909" d="M45 1176v258h819v-258h-272v-1176h-275v1176h-272z" />
<glyph unicode="U" horiz-adv-x="1110" d="M98 492v942h275v-957q0 -125 49 -184.5t133 -59.5t133 58.5t49 183.5v959h273v-940q0 -131 -33 -228.5t-93.5 -161t-144.5 -94t-186 -30.5t-185 31.5t-143.5 95t-93.5 159.5t-33 226z" />
<glyph unicode="V" horiz-adv-x="1056" d="M20 1434h289l223 -963l224 963h280l-374 -1440h-267z" />
<glyph unicode="W" horiz-adv-x="1613" d="M27 1434h286l176 -914l197 916h246l196 -916l177 914h280l-317 -1440h-269l-194 883l-195 -883h-266z" />
<glyph unicode="X" horiz-adv-x="1060" d="M35 0l336 729l-324 705h303l180 -455l187 455h297l-324 -701l336 -733h-303l-195 479l-198 -479h-295z" />
<glyph unicode="Y" horiz-adv-x="1036" d="M8 1434h299l213 -551l215 551h291l-371 -867v-567h-274v565z" />
<glyph unicode="Z" horiz-adv-x="974" d="M78 0v213l500 971h-484v250h805v-213l-500 -971h500v-250h-821z" />
<glyph unicode="[" horiz-adv-x="720" d="M143 -266v1700h498v-199h-254v-1303h254v-198h-498z" />
<glyph unicode="\" horiz-adv-x="798" d="M-12 1595h225l618 -1818h-225z" />
<glyph unicode="]" horiz-adv-x="720" d="M80 -68h256v1303h-256v199h498v-1700h-498v198z" />
<glyph unicode="^" horiz-adv-x="1024" d="M203 1022l207 403h202l209 -403h-182l-129 254l-129 -254h-178z" />
<glyph unicode="_" horiz-adv-x="1038" d="M-4 -109h1046v-206h-1046v206z" />
<glyph unicode="`" horiz-adv-x="1024" d="M283 1409l217 107l194 -324h-186z" />
<glyph unicode="a" horiz-adv-x="890" d="M45 309v23q0 182 87 266t226 84q53 0 98.5 -11.5t90.5 -31.5v49q0 94 -49 138t-127 44q-66 0 -119 -24.5t-78 -40.5l-80 219q68 37 145.5 61.5t170.5 24.5q190 0 292 -102q104 -104 105 -312v-696h-262v117q-41 -66 -98.5 -100.5t-135.5 -34.5q-113 0 -189.5 86 t-76.5 241zM301 334q0 -74 30 -108t77 -38h10q51 0 88 37q41 41 41 107v133q-23 10 -55.5 19.5t-63.5 9.5q-59 0 -93 -39t-34 -117v-4z" />
<glyph unicode="b" horiz-adv-x="995" d="M92 0v1462h266v-510q18 31 41 60.5t52.5 53.5t67.5 38t85 14q66 0 125 -29.5t103.5 -94t71 -167t26.5 -245.5v-66q0 -143 -26.5 -245.5t-71 -167t-103.5 -94t-125 -29.5q-47 0 -85 14t-67.5 36.5t-52 50.5t-41.5 56v-137h-266zM356 530q0 -143 43 -225t113 -82t111 82 t41 225v37q0 145 -41 226t-111 81t-113 -80.5t-43 -226.5v-37z" />
<glyph unicode="c" horiz-adv-x="790" d="M61 522v47q0 127 32 228.5t89.5 172t136 108.5t175.5 38q78 0 140 -24.5t128 -77.5l-123 -221q-25 29 -57.5 52t-79.5 23q-80 0 -127 -83t-47 -230v-14q0 -147 43 -231.5t131 -84.5q47 0 78.5 23.5t60.5 58.5l121 -203q-53 -59 -125 -93t-162 -34q-94 0 -170 38t-130 109 t-84 171t-30 227z" />
<glyph unicode="d" horiz-adv-x="995" d="M66 516v66q0 143 25.5 245.5t70.5 167t104.5 94t124.5 29.5q47 0 85 -14t66.5 -37t52 -51.5t42.5 -54.5v501h266v-1462h-266v145q-18 -31 -41 -60.5t-52.5 -53t-67.5 -37.5t-85 -14q-66 0 -125 29.5t-103 94t-70.5 166t-26.5 246.5zM332 530q0 -145 40.5 -226t110.5 -81 t113 81t43 226v37q0 143 -43 225t-113 82t-110.5 -81.5t-40.5 -225.5v-37z" />
<glyph unicode="e" horiz-adv-x="905" d="M57 528v35q0 127 31 229.5t86 174t129 110.5t160 39q94 0 168 -40t123 -114.5t74.5 -179t25.5 -233.5v-36t-2 -75h-530q14 -113 68 -169t132 -56q59 0 105.5 30.5t85.5 71.5l116 -196q-74 -68 -153.5 -105t-173.5 -37q-92 0 -174 37t-141.5 108t-94.5 173t-35 233z M319 629h281q-4 125 -39 192.5t-98 67.5q-59 0 -98 -65.5t-46 -194.5z" />
<glyph unicode="f" horiz-adv-x="579" d="M39 877v217h90v75q0 152 74 226q79 75 221 75h4q45 0 76 -4t59 -12v-221q-16 4 -31.5 7t-35.5 3q-47 0 -75 -26.5t-28 -79.5v-43h170v-217h-168v-877h-266v877h-90z" />
<glyph unicode="g" horiz-adv-x="995" d="M66 592v8q0 139 25.5 237.5t69.5 161t101 91t123 28.5q49 0 87 -14t67.5 -37t53 -50.5t44.5 -55.5v137h266v-948q0 -113 -27.5 -193t-82.5 -135q-59 -59 -147.5 -87t-205.5 -28q-98 0 -178 16.5t-164 51.5l70 217q45 -25 115.5 -42.5t130.5 -17.5q111 0 167 51.5 t56 166.5v90q-20 -31 -44 -62t-53.5 -53.5t-67.5 -36.5t-87 -14q-66 0 -124 29.5t-101 92t-68.5 161t-25.5 235.5zM332 596q0 -137 41.5 -209t109.5 -72t112 73t44 208t-44 208t-112 73t-109.5 -73t-41.5 -208z" />
<glyph unicode="h" horiz-adv-x="950" d="M92 0v1462h266v-504q41 66 95.5 113t144.5 47q129 0 198.5 -90t69.5 -240v-788h-266v719q0 78 -31.5 119t-87.5 41q-55 0 -89 -41t-34 -119v-719h-266z" />
<glyph unicode="i" horiz-adv-x="464" d="M94 1208v254h275v-254h-275zM98 0v1098h267v-1098h-267z" />
<glyph unicode="j" horiz-adv-x="466" d="M-33 -76q10 0 18.5 -1t18.5 -1q43 0 70.5 22.5t27.5 80.5v1073h267v-1096q0 -156 -77 -226.5t-216 -70.5q-37 0 -58.5 3t-50.5 7v209zM98 1208v254h275v-254h-275z" />
<glyph unicode="k" horiz-adv-x="899" d="M92 0v1462h266v-776l228 412h301l-269 -441l269 -657h-299l-162 428l-68 -115v-313h-266z" />
<glyph unicode="l" horiz-adv-x="464" d="M98 0v1462h267v-1462h-267z" />
<glyph unicode="m" horiz-adv-x="1447" d="M92 0v1098h266v-140q43 70 98.5 115t141.5 45q84 0 139.5 -39t89.5 -104q47 59 107.5 101t146.5 42q117 0 197 -83t80 -247v-788h-266v717q0 162 -115 162q-53 0 -86 -42t-33 -120v-717h-266v717q0 162 -115 162q-53 0 -86 -42t-33 -120v-717h-266z" />
<glyph unicode="n" horiz-adv-x="950" d="M92 0v1098h266v-140q41 66 95.5 113t144.5 47q129 0 198.5 -90t69.5 -240v-788h-266v719q0 78 -31.5 119t-87.5 41q-55 0 -89 -41t-34 -119v-719h-266z" />
<glyph unicode="o" d="M61 524v43q0 127 33 229.5t89.5 173t135 108.5t170.5 38t171 -38t136.5 -108.5t89.5 -172t32 -228.5v-43q0 -127 -32 -229t-89.5 -173t-136.5 -109t-171 -38t-170.5 38t-136 109t-89.5 172t-32 228zM326 535q0 -147 42.5 -235.5t120.5 -88.5q80 0 122 88t42 236v24 q0 147 -43 235.5t-121 88.5q-80 0 -121.5 -87t-41.5 -237v-24z" />
<glyph unicode="p" horiz-adv-x="995" d="M92 -289v1387h266v-146q18 31 41 60.5t52.5 53.5t67.5 38t85 14q66 0 125 -29.5t103.5 -94t71 -167t26.5 -245.5v-66q0 -143 -26.5 -245.5t-71 -167t-103.5 -94t-125 -29.5q-47 0 -85 14t-67.5 36.5t-52 50.5t-41.5 56v-426h-266zM356 530q0 -143 43 -225t113 -82t111 82 t41 225v37q0 145 -41 226t-111 81t-113 -80.5t-43 -226.5v-37z" />
<glyph unicode="q" horiz-adv-x="995" d="M66 516v66q0 143 25.5 245.5t70.5 167t104.5 94t124.5 29.5q47 0 85 -14t66.5 -37t52 -51.5t42.5 -54.5v137h266v-1387h-266v434q-18 -31 -41 -60.5t-52.5 -53t-67.5 -37.5t-85 -14q-66 0 -125 29.5t-103 94t-70.5 166t-26.5 246.5zM332 530q0 -145 40.5 -226t110.5 -81 t113 81t43 226v37q0 143 -43 225t-113 82t-110.5 -81.5t-40.5 -225.5v-37z" />
<glyph unicode="r" horiz-adv-x="632" d="M92 0v1098h266v-166q32 86 88 136q50 45 130 45q10 0 20 -1v-303h-8q-111 0 -170.5 -70.5t-59.5 -216.5v-522h-266z" />
<glyph unicode="s" horiz-adv-x="749" d="M8 117l123 202q57 -49 114.5 -80.5t116.5 -31.5q53 0 77 26.5t24 59.5v2q0 45 -42 76.5t-128 83.5q-119 70 -182.5 143.5t-63.5 187.5v5q0 74 25.5 133t71.5 102t110.5 65.5t140.5 22.5q72 0 154 -26.5t158 -83.5l-117 -203q-37 33 -87 59.5t-108 26.5q-47 0 -71.5 -23.5 t-24.5 -56.5v-4q0 -41 41 -73t129 -85q127 -76 186.5 -150.5t59.5 -181.5v-4q0 -78 -26.5 -139t-75 -103t-113 -64.5t-138.5 -22.5q-78 0 -171 29.5t-183 107.5z" />
<glyph unicode="t" horiz-adv-x="622" d="M41 877v221h88v280h266v-280h174v-221h-174v-574q0 -82 80 -82q47 0 92 23v-213q-35 -20 -81 -33.5t-99 -13.5t-100 11t-82 38.5t-55.5 76t-20.5 121.5v646h-88z" />
<glyph unicode="u" horiz-adv-x="950" d="M86 309v789h266v-719q0 -78 31 -119t86 -41t89 41t34 119v719h266v-1098h-266v139q-41 -66 -95.5 -112.5t-142.5 -46.5q-131 0 -199.5 90t-68.5 239z" />
<glyph unicode="v" horiz-adv-x="911" d="M29 1098h270l160 -721l159 721h267l-299 -1104h-258z" />
<glyph unicode="w" horiz-adv-x="1316" d="M33 1098h268l117 -633l131 635h221l133 -635l117 633h266l-242 -1104h-251l-136 624l-135 -624h-252z" />
<glyph unicode="x" horiz-adv-x="892" d="M27 0l264 561l-256 537h278l136 -326l135 326h272l-256 -537l266 -561h-282l-140 346l-141 -346h-276z" />
<glyph unicode="y" horiz-adv-x="911" d="M29 1098h272l158 -703l155 703h267l-295 -1098q-23 -82 -49.5 -138.5t-61.5 -92t-80 -51t-102 -15.5q-43 0 -94.5 13.5t-96.5 39.5l54 207q23 -12 49 -21.5t51 -9.5q29 0 49.5 14.5t28.5 55.5z" />
<glyph unicode="z" horiz-adv-x="790" d="M51 0v188l387 689h-372v221h675v-189l-387 -688h387v-221h-690z" />
<glyph unicode="{" horiz-adv-x="772" d="M68 481v213h47q88 0 135 42t47 132q0 63 -18.5 125t-18.5 125q0 70 22.5 129.5t71.5 104.5t128 73.5t192 38.5l35 -184q-209 -18 -209 -180q0 -37 6 -69t14 -62.5t14.5 -61t6.5 -67.5q0 -98 -64.5 -165t-171.5 -87q106 -20 171 -87t65 -165q0 -37 -6.5 -67.5t-14.5 -61.5 t-14 -62.5t-6 -68.5q0 -162 209 -180l-35 -185q-113 10 -192 39t-128 74t-71.5 104.5t-22.5 128.5q0 63 18.5 125t18.5 125q0 90 -47 132t-135 42h-47z" />
<glyph unicode="|" horiz-adv-x="585" d="M188 -223v1818h211v-1818h-211z" />
<glyph unicode="}" horiz-adv-x="772" d="M63 -104q209 18 209 180q0 37 -6 68.5t-14 62.5t-14.5 61.5t-6.5 67.5q0 98 64.5 164.5t171.5 87.5q-106 20 -171 86.5t-65 165.5q0 37 6.5 67.5t14.5 61t14 62.5t6 69q0 162 -209 180l35 184q113 -10 192 -38.5t128 -73.5t71.5 -104.5t22.5 -129.5q0 -63 -18.5 -124.5 t-18.5 -125.5q0 -90 47 -132t135 -42h48v-213h-48q-88 0 -135 -42t-47 -132q0 -63 18.5 -124.5t18.5 -125.5q0 -70 -22.5 -129t-71.5 -104t-128 -74t-192 -39z" />
<glyph unicode="~" horiz-adv-x="862" d="M84 535q23 125 78 185t129 60q49 0 86 -15t67 -34q29 -14 53.5 -25.5t51.5 -11.5q70 0 98 101l131 -43q-23 -127 -78 -186.5t-127 -59.5q-49 0 -86.5 15.5t-68.5 31.5q-29 16 -53.5 27.5t-51.5 11.5q-35 0 -52 -23.5t-34 -76.5z" />
<glyph unicode="&#xa1;" horiz-adv-x="532" d="M106 0v41l89 932h141l90 -932v-41h-320zM115 1133v301h301v-301h-301z" />
<glyph unicode="&#xa2;" horiz-adv-x="827" d="M68 700v43q0 115 25.5 208t72.5 163t112.5 114t145.5 58l12 158h182l-14 -164q51 -12 92 -34.5t82 -55.5l-123 -221q-20 23 -54 49t-87 26q-80 0 -130 -79.5t-50 -241.5v-6q0 -160 48 -238t130 -78q41 0 73.5 17.5t73.5 56.5l123 -203q-53 -51 -113.5 -81.5t-144.5 -36.5 l-12 -166h-180l14 192q-127 49 -202.5 183.5t-75.5 336.5z" />
<glyph unicode="&#xa3;" horiz-adv-x="940" d="M74 0v180l121 51v332h-117v240h117v209q0 229 114 338q51 49 121 75.5t141 26.5q100 0 185.5 -37t144.5 -115l-168 -190q-23 27 -54.5 51.5t-80.5 24.5q-20 0 -43 -7.5t-39 -23.5q-23 -23 -33 -60.5t-10 -88.5v-203h293v-240h-293v-319h412v-244h-811z" />
<glyph unicode="&#xa5;" horiz-adv-x="1038" d="M23 1434h292l207 -564l209 564h285l-305 -713h192v-201h-252v-125h252v-200h-252v-195h-264v195h-252v200h252v125h-252v201h191z" />
<glyph unicode="&#xa7;" horiz-adv-x="1007" d="M63 725v4q0 82 48.5 143.5t128.5 94.5q-37 37 -55.5 84t-18.5 98v4q0 70 25.5 125t72.5 94t112.5 60.5t145.5 21.5q88 0 174 -27.5t156 -80.5l-113 -189q-29 20 -86 48t-121 28q-53 0 -81.5 -21.5t-28.5 -56.5q0 -18 8 -34.5t29.5 -33t60.5 -35t98 -40.5 q76 -29 136.5 -58.5t102.5 -64.5t64.5 -79t22.5 -101v-4q0 -82 -48 -143.5t-128 -94.5q37 -37 55.5 -84t18.5 -98v-4q0 -70 -25.5 -125.5t-73 -94t-113 -60t-145.5 -21.5q-88 0 -174 27.5t-155 80.5l112 188q29 -20 86.5 -47.5t120.5 -27.5q53 0 82 21.5t29 56.5 q0 18 -8.5 34.5t-30 32.5t-60 34.5t-98.5 41.5q-76 29 -136 58.5t-102 64.5t-65 79t-23 101zM309 760q0 -47 42 -77t110 -60q51 -23 80.5 -33t60.5 -10q37 0 66.5 26.5t29.5 65.5v2q0 47 -42 76.5t-109 60.5q-51 23 -81 33t-60 10q-37 0 -67 -26.5t-30 -65.5v-2z" />
<glyph unicode="&#xa8;" horiz-adv-x="1024" d="M219 1196v240h246v-240h-246zM559 1196v240h246v-240h-246z" />
<glyph unicode="&#xa9;" horiz-adv-x="1302" d="M72 694v45q0 158 44 290t120.5 227.5t183 147.5t231.5 52t231.5 -52t184.5 -147.5t121 -227.5t43 -290v-45q0 -158 -44 -290t-121 -227t-183.5 -147.5t-231.5 -52.5q-127 0 -232.5 52.5t-183 147.5t-120.5 227.5t-43 289.5zM152 692q0 -139 35.5 -257t101 -201.5 t157.5 -131t205 -47.5q111 0 203 47.5t158.5 132t102.5 202.5t36 257v47q0 139 -36 256t-101.5 202t-157.5 132t-205 47q-111 0 -203 -47t-158.5 -132t-102 -202.5t-35.5 -257.5v-47zM379 709v24q0 98 22.5 173t62.5 124t94 74.5t118 25.5q63 0 107 -18t83 -53l-82 -127 q-20 20 -44.5 35.5t-61.5 15.5q-57 0 -99 -59.5t-42 -192.5v-16q0 -135 43 -194.5t102 -59.5q53 0 106 59l78 -121q-45 -51 -96 -68.5t-100 -17.5q-133 0 -212 101.5t-79 294.5z" />
<glyph unicode="&#xaa;" horiz-adv-x="618" d="M78 600v111h450v-111h-450zM88 1001v13q0 102 48 147t126 45q29 0 54.5 -7t50.5 -17v26q0 49 -27 75t-72 26q-33 0 -62.5 -12.5t-45.5 -26.5l-49 121q35 20 81 35.5t103 15.5q98 0 154 -53q61 -55 61 -177v-381h-145v66q-23 -35 -53.5 -55.5t-75.5 -20.5q-63 0 -105.5 47 t-42.5 133zM229 1012q0 -41 16.5 -58.5t43.5 -17.5q35 0 57.5 20.5t22.5 55.5v75q-14 4 -33 10.5t-35 6.5q-72 0 -72 -82v-10z" />
<glyph unicode="&#xab;" horiz-adv-x="1075" d="M61 541v16l320 453l186 -101l-217 -358l221 -358l-190 -105zM504 541v16l319 453l187 -101l-217 -358l221 -358l-191 -105z" />
<glyph unicode="&#xad;" horiz-adv-x="743" d="M88 502v266h567v-266h-567z" />
<glyph unicode="&#xae;" horiz-adv-x="681" d="M45 1085v23q0 78 22.5 142.5t61.5 111.5t93 73.5t118 26.5q63 0 118.5 -26.5t94.5 -73.5t61.5 -111.5t22.5 -142.5v-21q0 -78 -22.5 -143t-61.5 -112.5t-94.5 -74t-118.5 -26.5t-117.5 26.5t-93.5 74t-61.5 112t-22.5 141.5zM92 1085q0 -68 17.5 -124t50.5 -98t79 -65.5 t101 -23.5t101 23.5t79 65.5t51.5 99.5t18.5 124.5v21q0 68 -18.5 125t-51.5 98t-79 64.5t-101 23.5t-101 -23.5t-78 -65.5t-50.5 -98t-18.5 -124v-23zM221 909v387h119q63 0 101 -30.5t38 -94.5v-4q0 -41 -17.5 -68.5t-43.5 -41.5l69 -148h-92l-61 127h-29v-127h-84z M305 1108h31q57 0 57 57t-57 58h-31v-115z" />
<glyph unicode="&#xaf;" horiz-adv-x="1024" d="M229 1200v178h566v-178h-566z" />
<glyph unicode="&#xb0;" horiz-adv-x="716" d="M84 1087v17q0 78 20.5 141.5t57.5 107.5t87 68.5t109 24.5t109.5 -24.5t87.5 -68.5t58.5 -107.5t21.5 -141.5v-17q0 -78 -21.5 -141t-58.5 -108t-87.5 -69t-109.5 -24t-109 24t-87 69t-57.5 108.5t-20.5 140.5zM244 1094q0 -94 31.5 -143.5t82.5 -49.5t83 49t32 144v4 q0 96 -31.5 144t-83.5 48q-51 0 -82.5 -48t-31.5 -144v-4z" />
<glyph unicode="&#xb1;" horiz-adv-x="974" d="M84 668v247l283 -2l-2 293h245v-293l281 2v-247h-281v-291h-245l2 291h-283zM86 0v233h803v-233h-803z" />
<glyph unicode="&#xb2;" horiz-adv-x="614" d="M68 1556q57 59 112.5 88t126.5 29q104 0 168 -56t64 -155q0 -53 -20.5 -103t-86.5 -124l-151 -172h258v-152h-461v140l198 233q47 55 71 88t24 70q0 35 -22.5 56.5t-57.5 21.5t-65.5 -19.5t-73.5 -58.5z" />
<glyph unicode="&#xb3;" horiz-adv-x="614" d="M59 979l74 127q29 -23 64.5 -41t83.5 -18q43 0 69.5 24.5t26.5 67.5q0 86 -150 90h-37l-12 108l158 172h-240v150h436v-123l-174 -186q78 -14 131.5 -62.5t53.5 -144.5q0 -113 -69.5 -179.5t-186.5 -66.5q-72 0 -128.5 23.5t-99.5 58.5z" />
<glyph unicode="&#xb4;" horiz-adv-x="1024" d="M313 1192l195 324l217 -107l-225 -217h-187z" />
<glyph unicode="&#xb6;" horiz-adv-x="911" d="M45 946v4q0 125 39 216t106.5 150.5t159.5 88.5t201 29h244v-1434h-275v463h-18q-90 6 -173 36.5t-146.5 90t-100.5 147.5t-37 209z" />
<glyph unicode="&#xb7;" horiz-adv-x="524" d="M111 483v301h301v-301h-301z" />
<glyph unicode="&#xb8;" horiz-adv-x="1024" d="M285 -205l166 246h178l-119 -334z" />
<glyph unicode="&#xb9;" horiz-adv-x="499" d="M57 1589l189 78h123v-756h-170v580l-123 -53z" />
<glyph unicode="&#xba;" horiz-adv-x="618" d="M76 1118v25q0 141 65.5 221t167.5 80t168 -80t66 -219v-25q0 -141 -67 -221t-167 -80q-102 0 -167.5 80t-65.5 219zM84 600v111h451v-111h-451zM221 1122q0 -80 23.5 -128t64.5 -48t64.5 48t23.5 128v19q0 80 -23.5 127t-64.5 47t-64.5 -46t-23.5 -128v-19z" />
<glyph unicode="&#xbb;" horiz-adv-x="1075" d="M61 905l191 105l319 -453v-16l-319 -453l-186 100l217 359zM504 905l188 105l322 -453v-16l-322 -453l-184 100l217 359z" />
<glyph unicode="&#xbc;" horiz-adv-x="1269" d="M61 1364l189 78h123v-756h-170v580l-123 -54zM182 0l385 750l334 684h143l-385 -750l-333 -684h-144zM686 291l252 463h197v-475h73v-136h-73v-145h-150v145h-293zM821 279h170v294h-8z" />
<glyph unicode="&#xbd;" horiz-adv-x="1269" d="M61 1364l189 78h123v-756h-170v580l-123 -54zM156 0l385 750l333 684h144l-385 -750l-334 -684h-143zM717 645q57 59 112.5 88t126.5 29q104 0 168 -56.5t64 -154.5q0 -53 -20.5 -103.5t-86.5 -123.5l-151 -172h258v-152h-461v139l199 234q47 55 70.5 88t23.5 69 q0 35 -22.5 56.5t-57.5 21.5t-65.5 -19.5t-73.5 -58.5z" />
<glyph unicode="&#xbe;" horiz-adv-x="1382" d="M61 754l74 127q29 -23 65 -41.5t83 -18.5q43 0 69.5 24.5t26.5 67.5q0 86 -150 91h-36l-13 108l158 172h-240v150h437v-123l-175 -187q78 -14 131.5 -62t53.5 -144q0 -113 -69.5 -179.5t-186.5 -66.5q-72 0 -128.5 23.5t-99.5 58.5zM293 0l385 750l334 684h143l-385 -750 l-334 -684h-143zM809 291l252 463h196v-475h74v-136h-74v-145h-149v145h-293zM944 279h170v294h-8z" />
<glyph unicode="&#xbf;" horiz-adv-x="825" d="M47 381q0 84 23.5 148.5t64.5 111.5t95.5 79t115.5 50l25 203h180l31 -350l-9 -11q-127 -20 -191.5 -76.5t-64.5 -142.5v-4q0 -70 45.5 -110.5t114.5 -40.5q35 0 65.5 11t56.5 26.5t45.5 33t31.5 31.5l143 -197q-78 -72 -163.5 -113.5t-194.5 -41.5q-96 0 -172 28.5 t-130.5 81t-83 124t-28.5 159.5zM309 1133v301h301v-301h-301z" />
<glyph unicode="&#xc0;" horiz-adv-x="1112" d="M20 0l398 1440h276l400 -1440h-281l-78 299h-368l-76 -299h-271zM238 1702l229 108l203 -284h-201zM432 543h238l-117 471z" />
<glyph unicode="&#xc1;" horiz-adv-x="1112" d="M20 0l398 1440h276l400 -1440h-281l-78 299h-368l-76 -299h-271zM432 543h238l-117 471zM442 1526l203 284l229 -108l-231 -176h-201z" />
<glyph unicode="&#xc2;" horiz-adv-x="1112" d="M20 0l398 1440h276l400 -1440h-281l-78 299h-368l-76 -299h-271zM246 1522l192 266h234l192 -266h-198l-113 104l-113 -104h-194zM432 543h238l-117 471z" />
<glyph unicode="&#xc3;" horiz-adv-x="1112" d="M20 0l398 1440h276l400 -1440h-281l-78 299h-368l-76 -299h-271zM227 1554q27 125 70 184.5t121 59.5q41 0 82 -13t75 -30q29 -12 53.5 -21.5t43.5 -9.5q29 0 45 19.5t33 66.5l149 -38q-27 -127 -69.5 -186.5t-120.5 -59.5q-41 0 -80 13t-74 28q-29 14 -55.5 23t-44.5 9 q-29 0 -45.5 -19t-32.5 -67zM432 543h238l-117 471z" />
<glyph unicode="&#xc4;" horiz-adv-x="1112" d="M20 0l398 1440h276l400 -1440h-281l-78 299h-368l-76 -299h-271zM250 1530v235h250v-235h-250zM432 543h238l-117 471zM610 1530v235h250v-235h-250z" />
<glyph unicode="&#xc5;" horiz-adv-x="1112" d="M20 0l379 1378q-49 53 -49 125q0 86 60.5 139.5t146.5 53.5t146.5 -53.5t60.5 -139.5q0 -76 -51 -127l381 -1376h-281l-78 299h-368l-76 -299h-271zM432 543h238l-117 471zM459 1503q0 -41 27.5 -66.5t70.5 -25.5t70.5 25.5t27.5 66.5t-27.5 67.5t-70.5 26.5t-70.5 -26.5 t-27.5 -67.5z" />
<glyph unicode="&#xc6;" horiz-adv-x="1509" d="M6 0l524 1434h902v-254h-453v-332h397v-254h-397v-340h461v-254h-735v299h-322l-104 -299h-273zM471 543h234v626h-25z" />
<glyph unicode="&#xc7;" horiz-adv-x="993" d="M72 700v33q0 174 41 308.5t112.5 225.5t170 137t214.5 46q113 0 195 -38t147 -101l-155 -219q-41 41 -87 68.5t-102 27.5q-53 0 -99 -30t-81 -88t-55.5 -145t-20.5 -202v-10q0 -123 21.5 -211t56.5 -145.5t80 -84t94 -26.5q61 0 108.5 28.5t96.5 77.5l145 -213 q-141 -135 -313 -153l-98 -279l-226 88l138 205q-180 49 -281.5 225t-101.5 475z" />
<glyph unicode="&#xc8;" horiz-adv-x="933" d="M111 0v1434h745v-254h-473v-332h418v-254h-418v-340h481v-254h-753zM168 1696l229 108l203 -284h-201z" />
<glyph unicode="&#xc9;" horiz-adv-x="933" d="M111 0v1434h745v-254h-473v-332h418v-254h-418v-340h481v-254h-753zM373 1520l202 284l230 -108l-232 -176h-200z" />
<glyph unicode="&#xca;" horiz-adv-x="933" d="M111 0v1434h745v-254h-473v-332h418v-254h-418v-340h481v-254h-753zM178 1520l193 266h233l193 -266h-199l-113 104l-112 -104h-195z" />
<glyph unicode="&#xcb;" horiz-adv-x="933" d="M111 0v1434h745v-254h-473v-332h418v-254h-418v-340h481v-254h-753zM182 1524v235h250v-235h-250zM543 1524v235h250v-235h-250z" />
<glyph unicode="&#xcc;" horiz-adv-x="509" d="M-63 1696l229 108l203 -284h-201zM119 0v1434h272v-1434h-272z" />
<glyph unicode="&#xcd;" horiz-adv-x="509" d="M119 0v1434h272v-1434h-272zM143 1520l203 284l229 -108l-231 -176h-201z" />
<glyph unicode="&#xce;" horiz-adv-x="509" d="M-53 1520l192 266h234l192 -266h-198l-113 104l-113 -104h-194zM119 0v1434h272v-1434h-272z" />
<glyph unicode="&#xcf;" horiz-adv-x="509" d="M-49 1524v235h250v-235h-250zM119 0v1434h272v-1434h-272zM311 1524v235h250v-235h-250z" />
<glyph unicode="&#xd0;" horiz-adv-x="1165" d="M39 598v246h104v590h355q137 0 247.5 -47.5t188.5 -137.5t120 -220t42 -296v-33q0 -164 -42 -294t-120 -220t-188.5 -138t-247.5 -48h-355v598h-104zM418 250h76q143 0 231 108.5t88 348.5v20q0 240 -88 348.5t-231 108.5h-76v-340h182v-246h-182v-348z" />
<glyph unicode="&#xd1;" horiz-adv-x="1150" d="M111 0v1434h254l407 -783v783h268v-1434h-237l-424 815v-815h-268zM246 1548q27 125 69.5 184.5t120.5 59.5q41 0 82 -13.5t76 -29.5q29 -12 53.5 -21.5t42.5 -9.5q29 0 45.5 19.5t32.5 66.5l150 -39q-27 -127 -70 -186t-121 -59q-41 0 -80 13t-74 28q-29 14 -55 23 t-45 9q-29 0 -45 -19.5t-33 -66.5z" />
<glyph unicode="&#xd2;" horiz-adv-x="1185" d="M72 692v47q0 170 37.5 303.5t107.5 225.5t165 140t212 48t212 -48t163.5 -140t106.5 -225.5t38 -301.5v-47q0 -170 -38 -303t-107.5 -225t-164.5 -140.5t-212 -48.5t-212 48.5t-164 140.5t-106.5 224t-37.5 302zM272 1702l230 108l203 -284h-201zM352 705q0 -244 70 -360 t172 -116t171 115t69 358v27q0 242 -70 358.5t-172 116.5t-171 -115.5t-69 -357.5v-26z" />
<glyph unicode="&#xd3;" horiz-adv-x="1185" d="M72 692v47q0 170 37.5 303.5t107.5 225.5t165 140t212 48t212 -48t163.5 -140t106.5 -225.5t38 -301.5v-47q0 -170 -38 -303t-107.5 -225t-164.5 -140.5t-212 -48.5t-212 48.5t-164 140.5t-106.5 224t-37.5 302zM352 705q0 -244 70 -360t172 -116t171 115t69 358v27 q0 242 -70 358.5t-172 116.5t-171 -115.5t-69 -357.5v-26zM479 1526l203 284l229 -108l-231 -176h-201z" />
<glyph unicode="&#xd4;" horiz-adv-x="1185" d="M72 692v47q0 170 37.5 303.5t107.5 225.5t165 140t212 48t212 -48t163.5 -140t106.5 -225.5t38 -301.5v-47q0 -170 -38 -303t-107.5 -225t-164.5 -140.5t-212 -48.5t-212 48.5t-164 140.5t-106.5 224t-37.5 302zM283 1526l192 266h234l192 -266h-199l-112 104l-113 -104 h-194zM352 705q0 -244 70 -360t172 -116t171 115t69 358v27q0 242 -70 358.5t-172 116.5t-171 -115.5t-69 -357.5v-26z" />
<glyph unicode="&#xd5;" horiz-adv-x="1185" d="M72 692v47q0 170 37.5 303.5t107.5 225.5t165 140t212 48t212 -48t163.5 -140t106.5 -225.5t38 -301.5v-47q0 -170 -38 -303t-107.5 -225t-164.5 -140.5t-212 -48.5t-212 48.5t-164 140.5t-106.5 224t-37.5 302zM264 1554q27 125 70 184.5t121 59.5q41 0 82 -13t75 -30 q29 -12 53.5 -21.5t43.5 -9.5q29 0 45 19.5t32 66.5l150 -38q-27 -127 -70 -186.5t-121 -59.5q-41 0 -79.5 13t-73.5 28q-29 14 -55.5 23t-44.5 9q-29 0 -45.5 -19t-32.5 -67zM352 705q0 -244 70 -360t172 -116t171 115t69 358v27q0 242 -70 358.5t-172 116.5t-171 -115.5 t-69 -357.5v-26z" />
<glyph unicode="&#xd6;" horiz-adv-x="1185" d="M72 692v47q0 170 37.5 303.5t107.5 225.5t165 140t212 48t212 -48t163.5 -140t106.5 -225.5t38 -301.5v-47q0 -170 -38 -303t-107.5 -225t-164.5 -140.5t-212 -48.5t-212 48.5t-164 140.5t-106.5 224t-37.5 302zM287 1530v235h250v-235h-250zM352 705q0 -244 70 -360 t172 -116t171 115t69 358v27q0 242 -70 358.5t-172 116.5t-171 -115.5t-69 -357.5v-26zM647 1530v235h250v-235h-250z" />
<glyph unicode="&#xd7;" horiz-adv-x="974" d="M74 457l252 264l-252 262l184 162l229 -252l232 252l182 -160l-252 -264l252 -262l-184 -162l-230 252l-231 -252z" />
<glyph unicode="&#xd8;" horiz-adv-x="1185" d="M72 692v47q0 168 37.5 301.5t107.5 225.5t166 141t211 49q154 0 272 -88l45 76h201l-121 -209q59 -92 91 -216t32 -278v-47q0 -168 -39 -301t-107.5 -225t-164.5 -141.5t-211 -49.5q-152 0 -273 86l-45 -73h-200l121 209q-59 92 -91 215t-32 278zM348 700q0 -115 17 -208 l372 645q-59 72 -145 71q-109 0 -176.5 -114.5t-67.5 -358.5v-35zM446 297q60 -72 148 -72q109 0 176.5 115t67.5 358v35q0 119 -19 209z" />
<glyph unicode="&#xd9;" horiz-adv-x="1110" d="M98 492v942h275v-957q0 -125 49 -184.5t133 -59.5t133 58.5t49 183.5v959h273v-940q0 -131 -33 -228.5t-93.5 -161t-144.5 -94t-186 -30.5t-185 31.5t-143.5 95t-93.5 159.5t-33 226zM238 1696l229 108l203 -284h-201z" />
<glyph unicode="&#xda;" horiz-adv-x="1110" d="M98 492v942h275v-957q0 -125 49 -184.5t133 -59.5t133 58.5t49 183.5v959h273v-940q0 -131 -33 -228.5t-93.5 -161t-144.5 -94t-186 -30.5t-185 31.5t-143.5 95t-93.5 159.5t-33 226zM442 1520l203 284l229 -108l-231 -176h-201z" />
<glyph unicode="&#xdb;" horiz-adv-x="1110" d="M98 492v942h275v-957q0 -125 49 -184.5t133 -59.5t133 58.5t49 183.5v959h273v-940q0 -131 -33 -228.5t-93.5 -161t-144.5 -94t-186 -30.5t-185 31.5t-143.5 95t-93.5 159.5t-33 226zM244 1520l192 266h234l192 -266h-198l-113 104l-113 -104h-194z" />
<glyph unicode="&#xdc;" horiz-adv-x="1110" d="M98 492v942h275v-957q0 -125 49 -184.5t133 -59.5t133 58.5t49 183.5v959h273v-940q0 -131 -33 -228.5t-93.5 -161t-144.5 -94t-186 -30.5t-185 31.5t-143.5 95t-93.5 159.5t-33 226zM248 1524v235h250v-235h-250zM608 1524v235h250v-235h-250z" />
<glyph unicode="&#xdd;" horiz-adv-x="1036" d="M8 1434h299l213 -551l215 551h291l-371 -867v-567h-274v565zM403 1520l203 284l230 -108l-232 -176h-201z" />
<glyph unicode="&#xde;" horiz-adv-x="1007" d="M111 0v1434h274v-201h82q113 0 204 -32t155.5 -93t100.5 -152.5t36 -210.5v-4q0 -123 -37 -216t-102.5 -156.5t-154.5 -95t-194 -31.5h-90v-242h-274zM385 492h72q115 0 172 66.5t57 176.5q0 119 -55.5 182.5t-171.5 63.5h-74v-489z" />
<glyph unicode="&#xdf;" d="M92 0v1024q0 100 27.5 183t80 141.5t127 90t171.5 31.5q90 0 159.5 -28.5t116.5 -77.5t71.5 -114.5t24.5 -139.5v-12q0 -127 -48 -203t-120 -127q94 -45 157 -128t63 -218v-12q0 -195 -115 -304.5t-328 -109.5v217q180 16 180 209q0 88 -47 144.5t-133 74.5v186 q63 41 98 104.5t35 141.5v2q0 78 -32.5 122t-87.5 44q-66 0 -100 -54t-34 -155v-1032h-266z" />
<glyph unicode="&#xe0;" horiz-adv-x="890" d="M45 309v23q0 182 87 266t226 84q53 0 98.5 -11.5t90.5 -31.5v49q0 94 -49 138t-127 44q-66 0 -119 -24.5t-78 -40.5l-80 219q68 37 145.5 61.5t170.5 24.5q190 0 292 -102q104 -104 105 -312v-696h-262v117q-41 -66 -98.5 -100.5t-135.5 -34.5q-113 0 -189.5 86 t-76.5 241zM137 1409l217 107l195 -324h-187zM301 334q0 -74 30 -108t77 -38q57 -4 98 37t41 107v133q-23 10 -55.5 19.5t-63.5 9.5q-59 0 -93 -39t-34 -117v-4z" />
<glyph unicode="&#xe1;" horiz-adv-x="890" d="M45 309v23q0 182 87 266t226 84q53 0 98.5 -11.5t90.5 -31.5v49q0 94 -49 138t-127 44q-66 0 -119 -24.5t-78 -40.5l-80 219q68 37 145.5 61.5t170.5 24.5q190 0 292 -102q104 -104 105 -312v-696h-262v117q-41 -66 -98.5 -100.5t-135.5 -34.5q-113 0 -189.5 86 t-76.5 241zM301 334q0 -74 30 -108t77 -38q57 -4 98 37t41 107v133q-23 10 -55.5 19.5t-63.5 9.5q-59 0 -93 -39t-34 -117v-4zM336 1192l194 324l218 -107l-226 -217h-186z" />
<glyph unicode="&#xe2;" horiz-adv-x="890" d="M45 309v23q0 182 87 266t226 84q53 0 98.5 -11.5t90.5 -31.5v49q0 94 -49 138t-127 44q-66 0 -119 -24.5t-78 -40.5l-80 219q68 37 145.5 61.5t170.5 24.5q190 0 292 -102q104 -104 105 -312v-696h-262v117q-41 -66 -98.5 -100.5t-135.5 -34.5q-113 0 -189.5 86 t-76.5 241zM141 1192l193 297h221l193 -297h-187l-119 129l-118 -129h-183zM301 334q0 -74 30 -108t77 -38q57 -4 98 37t41 107v133q-23 10 -55.5 19.5t-63.5 9.5q-59 0 -93 -39t-34 -117v-4z" />
<glyph unicode="&#xe3;" horiz-adv-x="890" d="M45 309v23q0 182 87 266t226 84q53 0 98.5 -11.5t90.5 -31.5v49q0 94 -49 138t-127 44q-66 0 -119 -24.5t-78 -40.5l-80 219q68 37 145.5 61.5t170.5 24.5q190 0 292 -102q104 -104 105 -312v-696h-262v117q-41 -66 -98.5 -100.5t-135.5 -34.5q-113 0 -189.5 86 t-76.5 241zM123 1217q27 125 66.5 183t117.5 58q39 0 77 -14t73 -29q29 -12 54.5 -22.5t43.5 -10.5q33 0 47 20.5t31 67.5l145 -38q-27 -125 -66.5 -183.5t-117.5 -58.5q-39 0 -77 14.5t-73 28.5q-29 12 -54 22.5t-44 10.5q-33 0 -47 -20.5t-31 -67.5zM301 334 q0 -74 30 -108t77 -38q57 -4 98 37t41 107v133q-23 10 -55.5 19.5t-63.5 9.5q-59 0 -93 -39t-34 -117v-4z" />
<glyph unicode="&#xe4;" horiz-adv-x="890" d="M45 309v23q0 182 87 266t226 84q53 0 98.5 -11.5t90.5 -31.5v49q0 94 -49 138t-127 44q-66 0 -119 -24.5t-78 -40.5l-80 219q68 37 145.5 61.5t170.5 24.5q190 0 292 -102q104 -104 105 -312v-696h-262v117q-41 -66 -98.5 -100.5t-135.5 -34.5q-113 0 -189.5 86 t-76.5 241zM152 1196v240h245v-240h-245zM301 334q0 -74 30 -108t77 -38q57 -4 98 37t41 107v133q-23 10 -55.5 19.5t-63.5 9.5q-59 0 -93 -39t-34 -117v-4zM492 1196v240h245v-240h-245z" />
<glyph unicode="&#xe5;" horiz-adv-x="890" d="M45 309v23q0 182 87 266t226 84q53 0 98.5 -11.5t90.5 -31.5v49q0 94 -49 138t-127 44q-66 0 -119 -24.5t-78 -40.5l-80 219q68 37 145.5 61.5t170.5 24.5q190 0 292 -102q104 -104 105 -312v-696h-262v117q-41 -66 -98.5 -100.5t-135.5 -34.5q-113 0 -189.5 86 t-76.5 241zM242 1386q0 43 15 80t43 65t64.5 43t79.5 15q86 0 144.5 -57t58.5 -146q0 -43 -15.5 -80.5t-43 -65.5t-64.5 -43t-80 -15t-79.5 15t-64.5 43t-43 65.5t-15 80.5zM301 334q0 -74 30 -108t77 -38q57 -4 98 37t41 107v133q-23 10 -55.5 19.5t-63.5 9.5 q-59 0 -93 -39t-34 -117v-4zM346 1386q0 -47 28.5 -76.5t69.5 -29.5t70 29.5t29 76.5q0 45 -29 76t-70 31t-69.5 -30.5t-28.5 -76.5z" />
<glyph unicode="&#xe6;" horiz-adv-x="1388" d="M45 326v6q0 182 87 266t226 84q53 0 98.5 -11.5t90.5 -31.5v49q0 92 -47 137t-125 45q-63 0 -116.5 -24.5t-82.5 -46.5l-82 225q68 37 145.5 61.5t170.5 24.5q104 0 172.5 -34t111.5 -93q47 63 111.5 98t144.5 35q92 0 165 -40t122 -114.5t74.5 -179t25.5 -233.5v-36 t-2 -75h-530q14 -113 66.5 -169t136.5 -56q57 0 104 27.5t84 74.5l117 -196q-74 -72 -154 -107t-174 -35q-106 0 -191 49.5t-141 143.5q-51 -82 -130 -135t-179 -53q-135 0 -217 92t-82 252zM301 334q0 -72 33 -109t86 -37q43 0 88 32t80 97q-8 33 -14.5 69t-10.5 75 q-29 14 -60.5 23.5t-70.5 9.5q-59 0 -95 -39t-36 -115v-6zM803 629h280q-4 125 -38.5 192.5t-98.5 67.5q-59 0 -98 -65.5t-45 -194.5z" />
<glyph unicode="&#xe7;" horiz-adv-x="790" d="M61 522v47q0 127 32 228.5t89.5 172t136 108.5t175.5 38q78 0 140 -24.5t128 -77.5l-123 -221q-25 29 -57.5 52t-79.5 23q-80 0 -127 -83t-47 -230v-14q0 -147 43 -231.5t131 -84.5q47 0 78.5 23.5t60.5 58.5l121 -203q-96 -104 -236 -122l-96 -275l-225 88l137 205 q-131 47 -206 181t-75 341z" />
<glyph unicode="&#xe8;" horiz-adv-x="905" d="M57 528v35q0 127 31 229.5t86 174t129 110.5t160 39q94 0 168 -40t123 -114.5t74.5 -179t25.5 -233.5v-36t-2 -75h-530q14 -113 68 -169t132 -56q59 0 105.5 30.5t85.5 71.5l116 -196q-74 -68 -153.5 -105t-173.5 -37q-92 0 -174 37t-141.5 108t-94.5 173t-35 233z M154 1409l217 107l194 -324h-186zM319 629h281q-4 125 -39 192.5t-98 67.5q-59 0 -98 -65.5t-46 -194.5z" />
<glyph unicode="&#xe9;" horiz-adv-x="905" d="M57 528v35q0 127 31 229.5t86 174t129 110.5t160 39q94 0 168 -40t123 -114.5t74.5 -179t25.5 -233.5v-36t-2 -75h-530q14 -113 68 -169t132 -56q59 0 105.5 30.5t85.5 71.5l116 -196q-74 -68 -153.5 -105t-173.5 -37q-92 0 -174 37t-141.5 108t-94.5 173t-35 233z M319 629h281q-4 125 -39 192.5t-98 67.5q-59 0 -98 -65.5t-46 -194.5zM352 1192l195 324l217 -107l-225 -217h-187z" />
<glyph unicode="&#xea;" horiz-adv-x="905" d="M57 528v35q0 127 31 229.5t86 174t129 110.5t160 39q94 0 168 -40t123 -114.5t74.5 -179t25.5 -233.5v-36t-2 -75h-530q14 -113 68 -169t132 -56q59 0 105.5 30.5t85.5 71.5l116 -196q-74 -68 -153.5 -105t-173.5 -37q-92 0 -174 37t-141.5 108t-94.5 173t-35 233z M158 1188l192 297h221l193 -297h-186l-119 129l-119 -129h-182zM319 629h281q-4 125 -39 192.5t-98 67.5q-59 0 -98 -65.5t-46 -194.5z" />
<glyph unicode="&#xeb;" horiz-adv-x="905" d="M57 528v35q0 127 31 229.5t86 174t129 110.5t160 39q94 0 168 -40t123 -114.5t74.5 -179t25.5 -233.5v-36t-2 -75h-530q14 -113 68 -169t132 -56q59 0 105.5 30.5t85.5 71.5l116 -196q-74 -68 -153.5 -105t-173.5 -37q-92 0 -174 37t-141.5 108t-94.5 173t-35 233z M168 1196v240h246v-240h-246zM319 629h281q-4 125 -39 192.5t-98 67.5q-59 0 -98 -65.5t-46 -194.5zM508 1196v240h246v-240h-246z" />
<glyph unicode="&#xec;" horiz-adv-x="464" d="M-74 1409l217 107l195 -324h-186zM98 0v1098h267v-1098h-267z" />
<glyph unicode="&#xed;" horiz-adv-x="464" d="M98 0v1098h267v-1098h-267zM127 1192l195 324l217 -107l-226 -217h-186z" />
<glyph unicode="&#xee;" horiz-adv-x="464" d="M-70 1192l193 297h221l193 -297h-187l-119 129l-118 -129h-183zM98 0v1098h267v-1098h-267z" />
<glyph unicode="&#xef;" horiz-adv-x="464" d="M-59 1196v240h245v-240h-245zM98 0v1098h267v-1098h-267zM281 1196v240h245v-240h-245z" />
<glyph unicode="&#xf0;" d="M61 528v52q0 119 29 215t76 162.5t108.5 102.5t126.5 36q53 0 92 -15.5t80 -50.5q-45 90 -104 170l-178 -55l-58 153l125 39l-120 125h315l45 -49l170 53l55 -153l-116 -37q92 -139 150 -305t58 -359v-39q0 -143 -30.5 -253.5t-88 -186.5t-137 -116t-178.5 -40 q-92 0 -168.5 39t-132 111t-87.5 173t-32 228zM326 537q0 -147 41.5 -236.5t119.5 -89.5q82 0 123 88t41 236v22q0 150 -44 238t-122 88t-118.5 -88t-40.5 -236v-22z" />
<glyph unicode="&#xf1;" horiz-adv-x="950" d="M92 0v1098h266v-140q41 66 95.5 113t144.5 47q129 0 198.5 -90t69.5 -240v-788h-266v719q0 78 -31.5 119t-87.5 41q-55 0 -89 -41t-34 -119v-719h-266zM160 1217q27 125 66.5 183t117.5 58q39 0 77 -14t73 -29q29 -12 54 -22.5t44 -10.5q33 0 47 20.5t31 67.5l145 -38 q-27 -125 -66.5 -183.5t-117.5 -58.5q-39 0 -77 14.5t-73 28.5q-29 12 -54.5 22.5t-43.5 10.5q-33 0 -47 -20.5t-31 -67.5z" />
<glyph unicode="&#xf2;" d="M61 524v43q0 127 33 229.5t89.5 173t135 108.5t170.5 38t171 -38t136.5 -108.5t89.5 -172t32 -228.5v-43q0 -127 -32 -229t-89.5 -173t-136.5 -109t-171 -38t-170.5 38t-136 109t-89.5 172t-32 228zM184 1409l217 107l195 -324h-186zM326 535q0 -147 42.5 -235.5 t120.5 -88.5q80 0 122 88t42 236v24q0 147 -43 235.5t-121 88.5q-80 0 -121.5 -87t-41.5 -237v-24z" />
<glyph unicode="&#xf3;" d="M61 524v43q0 127 33 229.5t89.5 173t135 108.5t170.5 38t171 -38t136.5 -108.5t89.5 -172t32 -228.5v-43q0 -127 -32 -229t-89.5 -173t-136.5 -109t-171 -38t-170.5 38t-136 109t-89.5 172t-32 228zM326 535q0 -147 42.5 -235.5t120.5 -88.5q80 0 122 88t42 236v24 q0 147 -43 235.5t-121 88.5q-80 0 -121.5 -87t-41.5 -237v-24zM383 1192l195 324l217 -107l-226 -217h-186z" />
<glyph unicode="&#xf4;" d="M61 524v43q0 127 33 229.5t89.5 173t135 108.5t170.5 38t171 -38t136.5 -108.5t89.5 -172t32 -228.5v-43q0 -127 -32 -229t-89.5 -173t-136.5 -109t-171 -38t-170.5 38t-136 109t-89.5 172t-32 228zM188 1188l193 297h221l193 -297h-187l-119 129l-118 -129h-183z M326 535q0 -147 42.5 -235.5t120.5 -88.5q80 0 122 88t42 236v24q0 147 -43 235.5t-121 88.5q-80 0 -121.5 -87t-41.5 -237v-24z" />
<glyph unicode="&#xf5;" d="M61 524v43q0 127 33 229.5t89.5 173t135 108.5t170.5 38t171 -38t136.5 -108.5t89.5 -172t32 -228.5v-43q0 -127 -32 -229t-89.5 -173t-136.5 -109t-171 -38t-170.5 38t-136 109t-89.5 172t-32 228zM170 1217q27 125 66.5 183t117.5 58q39 0 77 -14t73 -29 q29 -12 54.5 -22.5t43.5 -10.5q33 0 47.5 20.5t30.5 67.5l145 -38q-27 -125 -66.5 -183.5t-117.5 -58.5q-39 0 -77 14.5t-72 28.5q-29 12 -54.5 22.5t-44.5 10.5q-33 0 -47 -20.5t-31 -67.5zM326 535q0 -147 42.5 -235.5t120.5 -88.5q80 0 122 88t42 236v24q0 147 -43 235.5 t-121 88.5q-80 0 -121.5 -87t-41.5 -237v-24z" />
<glyph unicode="&#xf6;" d="M61 524v43q0 127 33 229.5t89.5 173t135 108.5t170.5 38t171 -38t136.5 -108.5t89.5 -172t32 -228.5v-43q0 -127 -32 -229t-89.5 -173t-136.5 -109t-171 -38t-170.5 38t-136 109t-89.5 172t-32 228zM199 1196v240h245v-240h-245zM326 535q0 -147 42.5 -235.5t120.5 -88.5 q80 0 122 88t42 236v24q0 147 -43 235.5t-121 88.5q-80 0 -121.5 -87t-41.5 -237v-24zM539 1196v240h245v-240h-245z" />
<glyph unicode="&#xf7;" horiz-adv-x="974" d="M82 602v238h811v-238h-811zM354 217v258h267v-258h-267zM354 967v258h267v-258h-267z" />
<glyph unicode="&#xf8;" d="M35 -16l117 182q-43 68 -67 158t-24 200v43q0 127 33 229.5t89.5 173t135 108.5t170.5 38q125 0 226 -69l41 63h188l-119 -182q43 -70 68 -159t25 -200v-43q0 -127 -32 -229t-89.5 -173t-136 -109t-171.5 -38q-127 0 -225 70l-41 -63h-188zM313 535q0 -29 2 -56.5 t7 -52.5l268 412q-45 49 -101 49q-86 0 -131 -88t-45 -240v-24zM389 254q41 -47 100 -47q86 0 131.5 90t45.5 238v24q0 29 -2 55.5t-7 51.5z" />
<glyph unicode="&#xf9;" horiz-adv-x="950" d="M86 309v789h266v-719q0 -78 31 -119t86 -41t89 41t34 119v719h266v-1098h-266v139q-41 -66 -95.5 -112.5t-142.5 -46.5q-131 0 -199.5 90t-68.5 239zM166 1409l217 107l195 -324h-187z" />
<glyph unicode="&#xfa;" horiz-adv-x="950" d="M86 309v789h266v-719q0 -78 31 -119t86 -41t89 41t34 119v719h266v-1098h-266v139q-41 -66 -95.5 -112.5t-142.5 -46.5q-131 0 -199.5 90t-68.5 239zM365 1192l194 324l217 -107l-225 -217h-186z" />
<glyph unicode="&#xfb;" horiz-adv-x="950" d="M86 309v789h266v-719q0 -78 31 -119t86 -41t89 41t34 119v719h266v-1098h-266v139q-41 -66 -95.5 -112.5t-142.5 -46.5q-131 0 -199.5 90t-68.5 239zM170 1192l192 297h222l192 -297h-186l-119 129l-119 -129h-182z" />
<glyph unicode="&#xfc;" horiz-adv-x="950" d="M86 309v789h266v-719q0 -78 31 -119t86 -41t89 41t34 119v719h266v-1098h-266v139q-41 -66 -95.5 -112.5t-142.5 -46.5q-131 0 -199.5 90t-68.5 239zM180 1196v240h246v-240h-246zM520 1196v240h246v-240h-246z" />
<glyph unicode="&#xfd;" horiz-adv-x="911" d="M29 1098h272l158 -703l155 703h267l-295 -1098q-23 -82 -49.5 -138.5t-61.5 -92t-80 -51t-102 -15.5q-43 0 -94.5 13.5t-96.5 39.5l54 207q23 -12 49 -21.5t51 -9.5q29 0 49.5 14.5t28.5 55.5zM348 1192l195 324l217 -107l-225 -217h-187z" />
<glyph unicode="&#xfe;" horiz-adv-x="995" d="M92 -289v1751h266v-510q18 31 41 60.5t52.5 53.5t67.5 38t85 14q66 0 125 -29.5t103.5 -94t71 -167t26.5 -245.5v-66q0 -143 -26.5 -245.5t-71 -167t-103.5 -94t-125 -29.5q-47 0 -85 14t-67.5 36.5t-52 50.5t-41.5 56v-426h-266zM356 530q0 -143 43 -225t113 -82t111 82 t41 225v37q0 145 -41 226t-111 81t-113 -80.5t-43 -226.5v-37z" />
<glyph unicode="&#xff;" horiz-adv-x="911" d="M29 1098h272l158 -703l155 703h267l-295 -1098q-23 -82 -49.5 -138.5t-61.5 -92t-80 -51t-102 -15.5q-43 0 -94.5 13.5t-96.5 39.5l54 207q23 -12 49 -21.5t51 -9.5q29 0 49.5 14.5t28.5 55.5zM164 1196v240h246v-240h-246zM504 1196v240h246v-240h-246z" />
<glyph unicode="&#x152;" horiz-adv-x="1531" d="M72 700v33q0 164 42 294t118.5 220t187 138.5t250.5 48.5h784v-254h-453v-332h398v-254h-398v-340h461v-254h-792q-139 0 -250 47t-187.5 137t-118.5 220.5t-42 295.5zM352 707q0 -240 88 -348.5t232 -108.5h55v934h-53q-145 0 -233.5 -108.5t-88.5 -348.5v-20z" />
<glyph unicode="&#x153;" horiz-adv-x="1509" d="M61 524v43q0 127 33 229.5t90.5 173t135 108.5t167.5 38q94 0 168 -41t127 -119q51 78 123 119t162 41q94 0 167 -40t122 -114.5t74.5 -179t25.5 -233.5v-36t-2 -75h-528q14 -113 66 -169t136 -56q57 0 104.5 27.5t84.5 74.5l117 -196q-74 -72 -154 -107t-174 -35 q-205 0 -324 166q-51 -80 -127 -123t-172 -43q-90 0 -166.5 38t-133 109t-89.5 172t-33 228zM326 535q0 -147 42.5 -235.5t118.5 -88.5q78 0 119 88t41 236v24q0 147 -41 235.5t-119 88.5t-119.5 -87t-41.5 -237v-24zM922 629h280q-4 125 -39 192.5t-98 67.5 q-59 0 -98 -65.5t-45 -194.5z" />
<glyph unicode="&#x178;" horiz-adv-x="1036" d="M8 1434h299l213 -551l215 551h291l-371 -867v-567h-274v565zM211 1524v235h250v-235h-250zM571 1524v235h250v-235h-250z" />
<glyph unicode="&#x2c6;" horiz-adv-x="1024" d="M209 1192l192 297h222l192 -297h-186l-119 129l-119 -129h-182z" />
<glyph unicode="&#x2dc;" horiz-adv-x="1024" d="M184 1217q27 125 67 183t118 58q39 0 76.5 -14t72.5 -29q29 -12 54.5 -22.5t43.5 -10.5q33 0 47.5 20.5t30.5 67.5l146 -38q-27 -125 -67 -183.5t-118 -58.5q-39 0 -76.5 14.5t-72.5 28.5q-29 12 -54.5 22.5t-43.5 10.5q-33 0 -47.5 -20.5t-30.5 -67.5z" />
<glyph unicode="&#x2000;" horiz-adv-x="905" />
<glyph unicode="&#x2001;" horiz-adv-x="1810" />
<glyph unicode="&#x2002;" horiz-adv-x="905" />
<glyph unicode="&#x2003;" horiz-adv-x="1810" />
<glyph unicode="&#x2004;" horiz-adv-x="603" />
<glyph unicode="&#x2005;" horiz-adv-x="452" />
<glyph unicode="&#x2006;" horiz-adv-x="301" />
<glyph unicode="&#x2007;" horiz-adv-x="301" />
<glyph unicode="&#x2008;" horiz-adv-x="226" />
<glyph unicode="&#x2009;" horiz-adv-x="362" />
<glyph unicode="&#x200a;" horiz-adv-x="100" />
<glyph unicode="&#x2010;" horiz-adv-x="743" d="M88 502v266h567v-266h-567z" />
<glyph unicode="&#x2011;" horiz-adv-x="743" d="M88 502v266h567v-266h-567z" />
<glyph unicode="&#x2012;" horiz-adv-x="743" d="M88 502v266h567v-266h-567z" />
<glyph unicode="&#x2013;" horiz-adv-x="989" d="M88 506v258h813v-258h-813z" />
<glyph unicode="&#x2014;" horiz-adv-x="1550" d="M88 506v258h1374v-258h-1374z" />
<glyph unicode="&#x2018;" horiz-adv-x="507" d="M94 809v250q0 178 85 273t249 110l23 -111q-111 -20 -151 -82.5t-32 -138.5h127v-301h-301z" />
<glyph unicode="&#x2019;" horiz-adv-x="507" d="M55 911q111 20 151 83t32 139h-127v301h301v-250q0 -354 -334 -383z" />
<glyph unicode="&#x201a;" horiz-adv-x="538" d="M55 -221q119 20 163 82.5t36 138.5h-127v301h301v-250q0 -352 -350 -383z" />
<glyph unicode="&#x201c;" horiz-adv-x="944" d="M94 809v250q0 178 85 273t249 110l23 -111q-111 -20 -151 -82.5t-32 -138.5h127v-301h-301zM532 809v250q0 178 85 273t249 110l23 -111q-111 -20 -151 -82.5t-31 -138.5h127v-301h-302z" />
<glyph unicode="&#x201d;" horiz-adv-x="944" d="M55 911q111 20 151 83t32 139h-127v301h301v-250q0 -354 -334 -383zM494 911q111 20 150.5 83t31.5 139h-127v301h301v-250q0 -178 -85 -273.5t-249 -109.5z" />
<glyph unicode="&#x201e;" horiz-adv-x="989" d="M55 -221q119 20 163 82.5t36 138.5h-127v301h301v-250q0 -352 -350 -383zM506 -221q119 20 163 82.5t36 138.5h-127v301h301v-250q0 -352 -351 -383z" />
<glyph unicode="&#x2022;" horiz-adv-x="831" d="M160 711v24q0 139 72.5 218t183.5 79q109 0 182.5 -79t73.5 -218v-24q0 -68 -19.5 -123.5t-54.5 -93t-82 -58t-100 -20.5q-55 0 -101.5 20.5t-81 58t-54 93t-19.5 123.5z" />
<glyph unicode="&#x2026;" horiz-adv-x="1583" d="M111 0v297h299v-297h-299zM643 0v297h297v-297h-297zM1174 0v297h299v-297h-299z" />
<glyph unicode="&#x202f;" horiz-adv-x="362" />
<glyph unicode="&#x2039;" horiz-adv-x="632" d="M61 541v16l320 453l186 -101l-217 -358l221 -358l-190 -105z" />
<glyph unicode="&#x203a;" horiz-adv-x="632" d="M61 905l191 105l319 -453v-16l-319 -453l-186 100l217 359z" />
<glyph unicode="&#x205f;" horiz-adv-x="452" />
<glyph unicode="&#x20ac;" horiz-adv-x="1034" d="M57 457v192h125v49v35v60h-125v192h150q47 233 172 352t303 119q100 0 170 -36t141 -105l-155 -201q-20 25 -55 54.5t-97 29.5q-63 0 -116.5 -50t-82.5 -163h271v-192h-297v-58v-35v-51h297v-192h-275q29 -125 84.5 -173t116.5 -48q59 0 98 30.5t62 59.5l149 -197 q-66 -72 -144.5 -112t-174.5 -40q-180 0 -303 120t-168 360h-146z" />
<glyph unicode="&#x2122;" horiz-adv-x="1079" d="M39 1307v127h377v-127h-121v-512h-135v512h-121zM504 795v639h143l107 -234l108 234h142v-639h-132v403l-116 -258h-6l-115 258v-403h-131z" />
<glyph unicode="&#x25fc;" horiz-adv-x="1095" d="M0 0v1096h1096v-1096h-1096z" />
</font>
</defs>
</svg>
